<svg width="17" height="15" viewBox="0 0 17 15" fill="none" xmlns="http://www.w3.org/2000/svg">
<path d="M6.13889 15C5.25642 15 4.52448 14.3994 4.31493 13.5879C4.29132 13.5879 4.27361 13.5938 4.25 13.5938C3.20816 13.5938 2.36111 12.7529 2.36111 11.7188C2.36111 11.5781 2.37882 11.4404 2.41128 11.3086C1.54948 10.957 0.944444 10.1191 0.944444 9.14062C0.944444 8.77148 1.03889 8.42871 1.18941 8.11816C0.481076 7.71387 0 6.96387 0 6.09375C0 5.11816 0.602083 4.28027 1.45799 3.92871C1.43142 3.79395 1.41667 3.65625 1.41667 3.51562C1.41667 2.34961 2.36701 1.40625 3.54167 1.40625C3.66267 1.40625 3.78073 1.4209 3.89583 1.44141C4.17917 0.606445 4.96424 0 5.90278 0C7.07743 0 8.02778 0.943359 8.02778 2.10938V13.125C8.02778 14.1592 7.18073 15 6.13889 15ZM17 6.09375C17 6.96387 16.5189 7.71387 15.8106 8.11816C15.9641 8.42871 16.0556 8.77148 16.0556 9.14062C16.0556 10.1191 15.4505 10.957 14.5887 11.3086C14.6182 11.4404 14.6389 11.5781 14.6389 11.7188C14.6389 12.7529 13.7918 13.5938 12.75 13.5938C12.7264 13.5938 12.7057 13.5879 12.6851 13.5879C12.4755 14.3994 11.7436 15 10.8611 15C9.81927 15 8.97222 14.1621 8.97222 13.125V2.10938C8.97222 0.943359 9.92257 0 11.0972 0C12.0358 0 12.8208 0.606445 13.1042 1.44141C13.2193 1.4209 13.3373 1.40625 13.4583 1.40625C14.633 1.40625 15.5833 2.34961 15.5833 3.51562C15.5833 3.65625 15.5686 3.79395 15.542 3.92871C16.3979 4.28027 17 5.11816 17 6.09375Z" fill="#FE6019"/>
</svg>
