<svg width="16" height="16" viewBox="0 0 16 16" fill="none" xmlns="http://www.w3.org/2000/svg">
<path d="M7.65217 0C3.42496 0 0 3.58065 0 8C0 12.4194 3.42496 16 7.65217 16C11.8794 16 15.3043 12.4194 15.3043 8C15.3043 3.58065 11.8794 0 7.65217 0ZM7.65217 14.4516C4.24264 14.4516 1.48107 11.5645 1.48107 8C1.48107 4.43548 4.24264 1.54839 7.65217 1.54839C11.0617 1.54839 13.8233 4.43548 13.8233 8C13.8233 11.5645 11.0617 14.4516 7.65217 14.4516ZM9.55905 11.0839L6.93941 9.09355C6.84376 9.01935 6.78822 8.90323 6.78822 8.78065V3.48387C6.78822 3.27097 6.95484 3.09677 7.15849 3.09677H8.14586C8.34951 3.09677 8.51613 3.27097 8.51613 3.48387V8.05484L10.5773 9.62258C10.7439 9.74839 10.7778 9.99032 10.6575 10.1645L10.0774 11C9.95708 11.171 9.72567 11.2097 9.55905 11.0839Z" fill="#939393"/>
</svg>
