<svg width="14" height="21" viewBox="0 0 14 21" fill="none" xmlns="http://www.w3.org/2000/svg">
<path d="M8.16216 0.905562C7.84636 -0.274868 6.1958 -0.329829 5.83784 0.905562C3.97767 7.37619 0 9.13453 0 13.6951C0 17.7326 3.13091 20.9995 7 20.9995C10.8691 20.9995 14 17.7326 14 13.6951C14 9.11156 10.0311 7.40572 8.16216 0.905562ZM7 18.3745C4.54403 18.3745 2.54545 16.3135 2.54545 13.7808C2.54545 13.4182 2.83023 13.1245 3.18182 13.1245C3.53341 13.1245 3.81818 13.4182 3.81818 13.7808C3.81818 15.59 5.24563 17.062 7 17.062C7.35159 17.062 7.63636 17.3557 7.63636 17.7183C7.63636 18.0809 7.35159 18.3745 7 18.3745Z" fill="#FE6019"/>
</svg>
