<svg width="27" height="33" viewBox="0 0 27 33" fill="none" xmlns="http://www.w3.org/2000/svg">
<path d="M15.4413 21.2987C15.4413 22.0092 15.0395 22.6032 14.4708 22.941V27.1223H12.5296V22.9429C11.9589 22.6052 11.559 22.0112 11.559 21.2987C11.559 20.2272 12.4267 19.3576 13.5002 19.3576C14.5698 19.3576 15.4413 20.2253 15.4413 21.2987ZM26.0499 16.4225V30.166C26.0499 31.7714 24.7435 33.0778 23.1381 33.0778H3.7477C2.14235 33.0778 0.835938 31.7714 0.835938 30.166V16.4225C0.835938 14.8172 2.14235 13.5107 3.7477 13.5107H3.79429V9.65168C3.79429 4.29986 8.14835 -0.0541992 13.5002 -0.0541992C18.852 -0.0541992 23.2061 4.29986 23.2061 9.65168V13.5185C24.7803 13.5534 26.0499 14.8404 26.0499 16.4225ZM5.73547 13.5107H21.2649V9.65168C21.2649 5.36945 17.7824 1.88698 13.5002 1.88698C9.21794 1.88698 5.73547 5.36945 5.73547 9.65168V13.5107ZM24.1087 16.4225C24.1087 15.91 23.7069 15.5024 23.2061 15.4655V15.4733H3.79429V15.4519H3.7477C3.21388 15.4519 2.77711 15.8867 2.77711 16.4225V30.166C2.77711 30.7018 3.21388 31.1366 3.7477 31.1366H23.1381C23.6719 31.1366 24.1087 30.7018 24.1087 30.166V16.4225Z" fill="#FA7398"/>
</svg>
