<svg width="25" height="32" viewBox="0 0 25 32" fill="none" xmlns="http://www.w3.org/2000/svg">
<path d="M22.2027 12.4716L20.3819 14.2924L19.0095 12.92L20.8303 11.0992C22.7229 9.20656 22.7229 6.12785 20.8303 4.23714C18.9376 2.34644 15.8589 2.3445 13.9682 4.23714L8.16993 10.0374C6.27728 11.93 6.27728 15.0087 8.16993 16.8994C10.0626 18.7901 13.1413 18.7921 15.032 16.8994L16.4044 18.2719C15.0786 19.5977 13.3412 20.2577 11.6 20.2577C9.85875 20.2577 8.1214 19.5957 6.79752 18.2719C4.14975 15.6241 4.14975 11.3127 6.79752 8.66497L12.5958 2.86667C15.2455 0.216968 19.553 0.216968 22.2027 2.86667C24.8524 5.5125 24.8524 9.82385 22.2027 12.4716ZM8.72899 14.5953L8.47663 14.8457L9.84516 16.222L10.0995 15.9696C11.9921 14.077 15.0708 14.077 16.9615 15.9696C18.8522 17.8623 18.8542 20.941 16.9615 22.8317L11.0933 28.7037C9.20069 30.5964 6.12199 30.5964 4.23128 28.7037C2.34058 26.8111 2.33863 23.7324 4.23128 21.8417L6.28505 19.786L4.91264 18.4136L2.85887 20.4693C0.211106 23.117 0.211106 27.4284 2.85887 30.0761C4.18469 31.402 5.92205 32.062 7.66328 32.062C9.40452 32.062 11.1419 31.4 12.4677 30.0761L18.3359 24.206C20.9836 21.5583 20.9836 17.2469 18.3359 14.5991C15.6842 11.9456 11.3748 11.9514 8.72899 14.5953Z" fill="#FA7398"/>
</svg>
