<svg width="15" height="31" viewBox="0 0 15 31" fill="none" xmlns="http://www.w3.org/2000/svg">
<path d="M14.3342 7.21879V23.7149H12.393V7.21879C12.393 5.10097 10.842 2.82008 7.43523 2.82008C3.66741 2.82008 2.66188 5.58432 2.66188 7.21879V22.9831H2.67547V25.8114C2.67547 27.0149 4.0207 28.1524 5.44359 28.1524C7.08194 28.1524 8.48541 26.8266 8.48541 25.7434V25.2193H8.47959L8.49511 10.4334C8.49511 8.73679 8.01564 8.73679 7.59053 8.73679C6.87423 8.73679 6.5287 8.80473 6.5287 10.3344V20.3237H4.58753V10.3344C4.58753 9.45891 4.58753 6.79561 7.59053 6.79561C8.88917 6.79561 10.4363 7.42649 10.4363 10.4353L10.4227 22.9171H10.4266V25.7454C10.4266 28.0224 8.05059 30.0956 5.44359 30.0956C2.93559 30.0956 0.734291 28.0942 0.734291 25.8133V25.6697H0.720703V7.21879C0.720703 4.16532 2.82106 0.878906 7.43523 0.878906C11.964 0.880847 14.3342 4.06826 14.3342 7.21879Z" fill="#FA7398"/>
</svg>
