<svg width="23" height="33" viewBox="0 0 23 33" fill="none" xmlns="http://www.w3.org/2000/svg">
<path d="M11.5007 0.970703C5.61504 0.970703 0.824219 5.75958 0.824219 11.6472C0.824219 20.1359 10.3612 31.2259 10.7669 31.6956L11.5007 32.5401L12.2345 31.6937C12.6402 31.2259 22.1772 20.1359 22.1772 11.6472C22.1772 5.75958 17.3863 0.970703 11.5007 0.970703ZM11.5007 29.5351C9.2761 26.7709 2.7654 18.1229 2.7654 11.6472C2.7654 6.83111 6.68463 2.91188 11.5007 2.91188C16.3167 2.91188 20.236 6.83111 20.236 11.6472C20.236 18.1171 13.7253 26.7709 11.5007 29.5351ZM11.5007 6.09347C8.28998 6.09347 5.67716 8.70629 5.67716 11.917C5.67716 15.1277 8.28998 17.7405 11.5007 17.7405C14.7114 17.7405 17.3242 15.1277 17.3242 11.917C17.3242 8.70629 14.7114 6.09347 11.5007 6.09347ZM11.5007 15.7993C9.35957 15.7993 7.61834 14.0581 7.61834 11.917C7.61834 9.77588 9.35957 8.03464 11.5007 8.03464C13.6418 8.03464 15.383 9.77588 15.383 11.917C15.383 14.0581 13.6418 15.7993 11.5007 15.7993Z" fill="#FA7398"/>
</svg>
