<svg width="23" height="33" viewBox="0 0 23 33" fill="none" xmlns="http://www.w3.org/2000/svg">
<path d="M11.5007 0C5.61504 0 0.824219 5.08006 0.824219 11.3229C0.824219 15.8924 2.69551 18.447 4.34551 20.7007C5.58204 22.3856 6.64775 23.8415 6.64775 25.8895V29.9582C6.64775 31.6354 7.95416 33 9.55951 33H13.4419C15.0472 33 16.3536 31.6354 16.3536 29.9582V25.8312C16.3536 23.8027 17.3572 22.4633 18.6248 20.7667C20.2069 18.6489 22.1772 16.0166 22.1772 11.3229C22.1772 5.08006 17.3863 0 11.5007 0ZM13.4419 31.0588H9.55951C9.02569 31.0588 8.58892 30.5658 8.58892 29.9582V26.7882H14.4125V29.9582C14.4125 30.5658 13.9757 31.0588 13.4419 31.0588ZM17.0699 19.6039C15.9305 21.1278 14.7599 22.6962 14.4765 24.8471H8.51322C8.21816 22.7079 7.04957 21.1064 5.91204 19.5535C4.36492 17.4415 2.7654 15.2576 2.7654 11.3229C2.7654 6.14965 6.68463 1.94118 11.5007 1.94118C16.3167 1.94118 20.236 6.14965 20.236 11.3229C20.236 15.3702 18.6267 17.523 17.0699 19.6039Z" fill="#FA7398"/>
</svg>
