<svg width="31" height="33" viewBox="0 0 31 33" fill="none" xmlns="http://www.w3.org/2000/svg">
<path d="M20.3532 0V19.6486C20.3532 22.2284 18.1752 24.3249 15.5002 24.3249C12.8253 24.3249 10.6473 22.2284 10.6473 19.6486V0H0.941406V20.2504C0.941406 28.5314 8.44211 33 15.5002 33C22.5583 33 30.0591 28.5314 30.0591 20.2504V0H20.3532ZM28.1179 1.94118V7.76471H22.2943V1.94118H28.1179ZM8.70611 1.94118V7.76471H2.88258V1.94118H8.70611ZM15.5002 31.0588C10.4279 31.0588 2.88258 28.1801 2.88258 20.2504V9.70588H8.70611V19.6486C8.70611 23.298 11.7538 26.2661 15.5002 26.2661C19.2467 26.2661 22.2943 23.298 22.2943 19.6486V9.70588H28.1179V20.2504C28.1179 28.1801 20.5725 31.0588 15.5002 31.0588Z" fill="#FA7398"/>
</svg>
