<svg width="31" height="32" viewBox="0 0 31 32" fill="none" xmlns="http://www.w3.org/2000/svg">
<path d="M28.7236 26.4193C28.6964 26.3941 26.1767 23.9075 26.1767 20.1882V13.7978C26.1767 7.77823 21.3859 2.88258 15.5003 2.88258C9.61461 2.88258 4.82379 7.77823 4.82379 13.7978V20.1882C4.82379 23.8007 2.28861 26.4058 2.26532 26.431L0.628906 28.0868H30.4396L28.7236 26.4193ZM4.92473 26.1456C5.78661 24.8023 6.76497 22.7214 6.76497 20.1882V13.7978C6.76497 8.84976 10.6842 4.82376 15.5003 4.82376C20.3163 4.82376 24.2356 8.84976 24.2356 13.7978V20.1882C24.2356 22.7505 25.1964 24.814 26.0564 26.1456H4.92473ZM16.4708 2.88258H14.5297V0.941406H16.4708V2.88258ZM16.4708 28.1179H18.412C18.412 29.7232 17.1056 31.0296 15.5003 31.0296C13.8949 31.0296 12.5885 29.7232 12.5885 28.1179H14.5297C14.5297 28.6536 14.9664 29.0885 15.5003 29.0885C16.0341 29.0885 16.4708 28.6536 16.4708 28.1179Z" fill="#FA7398"/>
</svg>
