<svg width="19" height="16" viewBox="0 0 19 16" fill="none" xmlns="http://www.w3.org/2000/svg">
<path d="M4.56609 15.2704V5.45315H0.948103V15.2704H4.56609ZM2.73764 4.1398C3.90474 4.1398 4.83841 3.31895 4.83841 2.33394C4.83841 1.38176 3.90474 0.59375 2.73764 0.59375C1.60945 0.59375 0.675781 1.38176 0.675781 2.33394C0.675781 3.31895 1.60945 4.1398 2.73764 4.1398ZM18.0654 15.2704H18.1044V9.8857C18.1044 7.259 17.4041 5.22331 13.7472 5.22331C11.9966 5.22331 10.8295 6.04415 10.3237 6.79933H10.2848V5.45315H6.82246V15.2704H10.4404V10.411C10.4404 9.13053 10.7128 7.91568 12.5801 7.91568C14.4475 7.91568 14.4864 9.36036 14.4864 10.5095V15.2704H18.0654Z" fill="#222222"/>
</svg>
