<svg width="28" height="28" viewBox="0 0 28 28" fill="none" xmlns="http://www.w3.org/2000/svg">
<path d="M14.0003 0.666748C6.64033 0.666748 0.666992 6.64008 0.666992 14.0001C0.666992 21.3601 6.64033 27.3334 14.0003 27.3334C21.3603 27.3334 27.3337 21.3601 27.3337 14.0001C27.3337 6.64008 21.3603 0.666748 14.0003 0.666748ZM24.5737 12.6667H15.3337V3.42675C20.147 4.02675 23.9737 7.85341 24.5737 12.6667ZM3.33366 14.0001C3.33366 8.57341 7.41366 4.08008 12.667 3.42675V24.5734C7.41366 23.9201 3.33366 19.4267 3.33366 14.0001ZM15.3337 24.5734V15.3334H24.5737C23.9737 20.1467 20.147 23.9734 15.3337 24.5734Z" fill="white"/>
</svg>
