<svg width="28" height="26" viewBox="0 0 28 26" fill="none" xmlns="http://www.w3.org/2000/svg">
<path d="M7.36033 15.3334C4.41366 15.3334 2.02699 17.7201 2.02699 20.6667C2.02699 23.6134 4.41366 26.0001 7.36033 26.0001C10.307 26.0001 12.6937 23.6134 12.6937 20.6667C12.6937 17.7201 10.307 15.3334 7.36033 15.3334ZM7.36033 23.3334C5.89366 23.3334 4.69366 22.1334 4.69366 20.6667C4.69366 19.2001 5.89366 18.0001 7.36033 18.0001C8.82699 18.0001 10.027 19.2001 10.027 20.6667C10.027 22.1334 8.82699 23.3334 7.36033 23.3334ZM15.3337 15.3334V26.0001H26.0003V15.3334H15.3337ZM23.3337 23.3334H18.0003V18.0001H23.3337V23.3334ZM7.33366 0.666748L0.666992 12.6667H14.0003L7.33366 0.666748ZM7.33366 6.16008L9.46699 10.0001H5.20033L7.33366 6.16008ZM23.667 1.33341C22.2537 1.33341 21.2537 2.08008 20.667 2.89341C20.0803 2.08008 19.0803 1.33341 17.667 1.33341C15.587 1.33341 14.0003 3.04008 14.0003 5.00008C14.0003 7.66675 17.227 9.56008 20.667 12.6667C24.107 9.56008 27.3337 7.66675 27.3337 5.00008C27.3337 3.04008 25.747 1.33341 23.667 1.33341ZM20.667 9.13342C18.7337 7.50675 16.667 5.93341 16.667 5.00008C16.667 4.42675 17.1337 4.00008 17.667 4.00008C18.0803 4.00008 18.3603 4.22675 18.6403 4.49341L20.667 6.40008L22.6937 4.49341C22.9737 4.22675 23.2537 4.00008 23.667 4.00008C24.2003 4.00008 24.667 4.42675 24.667 5.00008C24.667 5.93341 22.6003 7.50675 20.667 9.13342Z" fill="#222222"/>
</svg>
