<svg width="17" height="18" viewBox="0 0 17 18" fill="none" xmlns="http://www.w3.org/2000/svg">
<path d="M15.3829 10.554C15.4875 10.0381 15.5573 9.48523 15.5573 8.9324C15.5573 4.76772 12.3483 1.37701 8.40687 1.37701C7.88367 1.37701 7.36047 1.45072 6.87215 1.56129C6.20943 1.00846 5.37231 0.676758 4.50031 0.676758C2.33775 0.676758 0.59375 2.55639 0.59375 4.80458C0.59375 5.76282 0.87279 6.64735 1.39599 7.34761C1.29135 7.86359 1.22159 8.41642 1.22159 8.9324C1.22159 13.1339 4.43055 16.5246 8.37199 16.5246C8.89518 16.5246 9.41838 16.4509 9.9067 16.3404C10.5694 16.8932 11.4065 17.188 12.2785 17.188C14.4411 17.188 16.1851 15.3453 16.1851 13.0602C16.22 12.1388 15.9061 11.2543 15.3829 10.554ZM8.61615 13.9447C6.31407 13.9447 4.39567 12.8759 4.39567 11.5491C4.39567 10.9595 4.70959 10.4066 5.44207 10.4066C6.52335 10.4066 6.62799 12.0651 8.51151 12.0651C9.3835 12.0651 9.97646 11.6597 9.97646 11.1069C9.97646 10.4066 9.41838 10.2961 8.51151 10.0749C6.34895 9.48523 4.39567 9.2641 4.39567 6.86849C4.39567 4.65716 6.45359 3.84633 8.19759 3.84633C10.116 3.84633 12.0693 4.65716 12.0693 5.91024C12.0693 6.53679 11.6856 7.08962 11.0229 7.08962C10.0462 7.08962 10.0113 5.83653 8.40687 5.83653C7.49999 5.83653 6.94191 6.09452 6.94191 6.68421C6.94191 7.38446 7.67439 7.45818 9.34862 7.90044C10.7787 8.23214 12.5227 8.85869 12.5227 10.7383C12.5227 12.9128 10.5345 13.9447 8.61615 13.9447Z" fill="#222222"/>
</svg>
