<svg width="25" height="24" viewBox="0 0 25 24" fill="none" xmlns="http://www.w3.org/2000/svg">
<path d="M11.4068 1.21993C11.7484 0.398636 12.9118 0.398636 13.2534 1.21993L15.7986 7.33923C15.9426 7.68547 16.2682 7.92204 16.642 7.952L23.2483 8.48163C24.1349 8.55271 24.4945 9.65922 23.8189 10.2379L18.7856 14.5494C18.5008 14.7934 18.3764 15.1762 18.4635 15.5409L20.0012 21.9876C20.2076 22.8528 19.2663 23.5366 18.5072 23.073L12.8513 19.6184C12.5313 19.4229 12.1288 19.4229 11.8088 19.6184L6.15291 23.073C5.39381 23.5366 4.45256 22.8528 4.65894 21.9876L6.1967 15.5409C6.28371 15.1762 6.15934 14.7934 5.87455 14.5494L0.841243 10.2379C0.165706 9.65922 0.525231 8.55271 1.41189 8.48163L8.01819 7.952C8.39198 7.92204 8.71759 7.68547 8.8616 7.33923L11.4068 1.21993Z" fill="#FEB837"/>
</svg>
