<svg width="14" height="18" viewBox="0 0 14 18" fill="none" xmlns="http://www.w3.org/2000/svg">
<path d="M13.125 2.25C13.6083 2.25 14 1.87225 14 1.40625V0.84375C14 0.377754 13.6083 0 13.125 0H0.875C0.391745 0 0 0.377754 0 0.84375V1.40625C0 1.87225 0.391745 2.25 0.875 2.25C0.875 5.44799 2.73496 8.1469 5.2807 9C2.73496 9.8531 0.875 12.552 0.875 15.75C0.391745 15.75 0 16.1278 0 16.5938V17.1562C0 17.6222 0.391745 18 0.875 18H13.125C13.6083 18 14 17.6222 14 17.1562V16.5938C14 16.1278 13.6083 15.75 13.125 15.75C13.125 12.552 11.265 9.8531 8.7193 9C11.265 8.1469 13.125 5.44799 13.125 2.25ZM7 7.3125C4.89318 7.3125 3.20833 4.97398 3.20833 2.25H10.7917C10.7917 4.99025 9.09599 7.3125 7 7.3125Z" fill="#FE6019"/>
</svg>
