<svg width="19" height="15" viewBox="0 0 19 15" fill="none" xmlns="http://www.w3.org/2000/svg">
<path d="M16.3308 3.92621C17.0129 3.42889 17.6269 2.83209 18.1044 2.13583C17.4904 2.40108 16.7742 2.60001 16.0579 2.66632C16.8083 2.2353 17.354 1.5722 17.6269 0.743317C16.9447 1.14118 16.1603 1.43958 15.3758 1.60535C14.6937 0.909093 13.7728 0.51123 12.7496 0.51123C10.7714 0.51123 9.16837 2.06952 9.16837 3.99252C9.16837 4.25777 9.20248 4.52301 9.27069 4.78825C6.3034 4.62247 3.64307 3.22995 1.86952 1.14118C1.56256 1.63851 1.39202 2.2353 1.39202 2.8984C1.39202 4.09199 2.00595 5.15296 2.99504 5.7829C2.41523 5.74975 1.83541 5.61713 1.35792 5.35189V5.38504C1.35792 7.07596 2.58576 8.46847 4.22289 8.80002C3.95003 8.86633 3.60897 8.93265 3.302 8.93265C3.06326 8.93265 2.85862 8.89949 2.61987 8.86633C3.06326 10.2589 4.39342 11.2535 5.96233 11.2867C4.73449 12.215 3.19968 12.7786 1.52845 12.7786C1.22149 12.7786 0.948636 12.7455 0.675781 12.7123C2.24469 13.707 4.12057 14.2706 6.16698 14.2706C12.7496 14.2706 16.3308 8.99896 16.3308 4.39039C16.3308 4.22461 16.3308 4.09199 16.3308 3.92621Z" fill="#222222"/>
</svg>
