<svg width="147" height="31" viewBox="0 0 147 31" fill="none" xmlns="http://www.w3.org/2000/svg">
<path d="M46.463 13.1542C46.463 14.1004 46.232 14.9874 45.7702 15.8153C45.3254 16.6432 44.6155 17.3106 43.6404 17.8175C42.6825 18.3244 41.4679 18.5778 39.9968 18.5778H36.9947V25.37H33.4023V7.67984H39.9968C41.3824 7.67984 42.5627 7.91639 43.5378 8.38948C44.5128 8.86257 45.2399 9.51307 45.7188 10.341C46.2149 11.1689 46.463 12.1066 46.463 13.1542ZM39.8428 15.7139C40.835 15.7139 41.5706 15.4943 42.0495 15.055C42.5285 14.5988 42.768 13.9652 42.768 13.1542C42.768 11.4308 41.793 10.5691 39.8428 10.5691H36.9947V15.7139H39.8428Z" fill="#222222"/>
<path d="M50.8353 9.65668C50.2023 9.65668 49.672 9.46238 49.2444 9.07377C48.8338 8.66826 48.6286 8.16983 48.6286 7.57846C48.6286 6.9871 48.8338 6.49711 49.2444 6.1085C49.672 5.703 50.2023 5.50024 50.8353 5.50024C51.4682 5.50024 51.9899 5.703 52.4005 6.1085C52.8281 6.49711 53.042 6.9871 53.042 7.57846C53.042 8.16983 52.8281 8.66826 52.4005 9.07377C51.9899 9.46238 51.4682 9.65668 50.8353 9.65668ZM52.6058 11.3294V25.37H49.0135V11.3294H52.6058Z" fill="#222222"/>
<path d="M64.0324 11.1266C65.7259 11.1266 67.0944 11.6589 68.1379 12.7233C69.1814 13.7709 69.7031 15.2408 69.7031 17.1332V25.37H66.1108V17.6147C66.1108 16.4996 65.8286 15.6463 65.2641 15.055C64.6995 14.4467 63.9298 14.1426 62.9547 14.1426C61.9625 14.1426 61.1757 14.4467 60.594 15.055C60.0295 15.6463 59.7473 16.4996 59.7473 17.6147V25.37H56.155V11.3294H59.7473V13.0781C60.2263 12.4699 60.8335 11.9968 61.5691 11.6589C62.3218 11.3041 63.1429 11.1266 64.0324 11.1266Z" fill="#222222"/>
<path d="M92.8256 11.3294L88.6688 25.37H84.7942L82.2026 15.5619L79.611 25.37H75.7108L71.5283 11.3294H75.172L77.6866 22.0246L80.4065 11.3294H84.2041L86.8726 21.9993L89.3873 11.3294H92.8256Z" fill="#222222"/>
<path d="M102.775 11.1266C103.853 11.1266 104.811 11.3632 105.649 11.8363C106.487 12.2925 107.137 12.9768 107.599 13.8892C108.078 14.7846 108.317 15.866 108.317 17.1332V25.37H104.725V17.6147C104.725 16.4996 104.443 15.6463 103.878 15.055C103.314 14.4467 102.544 14.1426 101.569 14.1426C100.577 14.1426 99.79 14.4467 99.2084 15.055C98.6439 15.6463 98.3616 16.4996 98.3616 17.6147V25.37H94.7693V6.61539H98.3616V13.0781C98.8235 12.4699 99.4393 11.9968 100.209 11.6589C100.979 11.3041 101.834 11.1266 102.775 11.1266Z" fill="#222222"/>
<path d="M124.948 18.0456C124.948 18.5525 124.914 19.0087 124.845 19.4142H114.453C114.539 20.4279 114.898 21.2221 115.531 21.7965C116.164 22.371 116.942 22.6582 117.866 22.6582C119.2 22.6582 120.15 22.0922 120.714 20.9602H124.589C124.178 22.3119 123.391 23.427 122.228 24.3056C121.065 25.1673 119.637 25.5981 117.943 25.5981C116.575 25.5981 115.343 25.3025 114.248 24.7111C113.17 24.1028 112.324 23.2496 111.708 22.1513C111.109 21.0531 110.81 19.7859 110.81 18.3497C110.81 16.8967 111.109 15.621 111.708 14.5228C112.307 13.4245 113.145 12.5797 114.223 11.9883C115.3 11.397 116.54 11.1013 117.943 11.1013C119.295 11.1013 120.5 11.3885 121.561 11.963C122.639 12.5375 123.468 13.3569 124.05 14.4214C124.649 15.4689 124.948 16.677 124.948 18.0456ZM121.228 17.0318C121.21 16.1194 120.877 15.3929 120.227 14.8522C119.577 14.2947 118.781 14.0159 117.84 14.0159C116.951 14.0159 116.198 14.2862 115.582 14.8269C114.984 15.3507 114.616 16.0856 114.479 17.0318H121.228Z" fill="#222222"/>
<path d="M140.785 18.0456C140.785 18.5525 140.751 19.0087 140.682 19.4142H130.29C130.376 20.4279 130.735 21.2221 131.368 21.7965C132.001 22.371 132.779 22.6582 133.703 22.6582C135.037 22.6582 135.986 22.0922 136.551 20.9602H140.426C140.015 22.3119 139.228 23.427 138.065 24.3056C136.902 25.1673 135.473 25.5981 133.78 25.5981C132.411 25.5981 131.18 25.3025 130.085 24.7111C129.007 24.1028 128.16 23.2496 127.545 22.1513C126.946 21.0531 126.646 19.7859 126.646 18.3497C126.646 16.8967 126.946 15.621 127.545 14.5228C128.143 13.4245 128.981 12.5797 130.059 11.9883C131.137 11.397 132.377 11.1013 133.78 11.1013C135.131 11.1013 136.337 11.3885 137.398 11.963C138.475 12.5375 139.305 13.3569 139.887 14.4214C140.485 15.4689 140.785 16.677 140.785 18.0456ZM137.064 17.0318C137.047 16.1194 136.713 15.3929 136.063 14.8522C135.413 14.2947 134.618 14.0159 133.677 14.0159C132.788 14.0159 132.035 14.2862 131.419 14.8269C130.82 15.3507 130.453 16.0856 130.316 17.0318H137.064Z" fill="#222222"/>
<path d="M146.999 6.61539V25.37H143.407V6.61539H146.999Z" fill="#222222"/>
<path d="M16.4641 20.5973C15.1069 19.2401 14.3594 17.4355 14.3594 15.516V15.2932H29.9076V15.516C29.9076 19.4783 26.6839 22.702 22.7215 22.702H21.5454C19.626 22.702 17.8214 21.9545 16.4641 20.5973Z" fill="url(#paint0_linear_34_186)"/>
<path d="M7.42138e-05 16.259C-4.07928e-08 14.3395 0.747521 12.535 2.10475 11.1777C3.46197 9.82037 5.26658 9.07292 7.18606 9.073H8.36218C10.2816 9.073 12.0862 9.82044 13.4435 11.1777C14.8007 12.535 15.5482 14.3396 15.5482 16.2591V16.4818H0L7.42138e-05 16.259Z" fill="url(#paint1_linear_34_186)"/>
<path d="M10.2434 28.7367C8.88619 27.3795 8.13867 25.5749 8.13875 23.6554L8.13867 22.4793C8.13867 20.5598 8.88612 18.7552 10.2434 17.3979C11.6007 16.0406 13.4052 15.2931 15.3247 15.2932H15.5475V30.8414H15.3247C13.4052 30.8414 11.6006 30.0941 10.2434 28.7367Z" fill="url(#paint2_linear_34_186)"/>
<path d="M14.3594 0.93335H14.5821C16.5016 0.93335 18.3062 1.6808 19.6635 3.03809C21.0207 4.39532 21.7682 6.19993 21.7682 8.11941V9.29545C21.7682 13.2579 18.5446 16.4815 14.5821 16.4815H14.3594V0.93335Z" fill="url(#paint3_linear_34_186)"/>
<defs>
<linearGradient id="paint0_linear_34_186" x1="14.51" y1="15.2932" x2="14.51" y2="22.5585" gradientUnits="userSpaceOnUse">
<stop stop-color="#FA709A"/>
<stop offset="1" stop-color="#FEE140"/>
</linearGradient>
<linearGradient id="paint1_linear_34_186" x1="0.150598" y1="9.073" x2="0.150598" y2="16.3383" gradientUnits="userSpaceOnUse">
<stop stop-color="#FA709A"/>
<stop offset="1" stop-color="#FEE140"/>
</linearGradient>
<linearGradient id="paint2_linear_34_186" x1="8.21043" y1="15.2932" x2="8.21043" y2="30.5402" gradientUnits="userSpaceOnUse">
<stop stop-color="#FA709A"/>
<stop offset="1" stop-color="#FEE140"/>
</linearGradient>
<linearGradient id="paint3_linear_34_186" x1="14.4311" y1="0.93335" x2="14.4311" y2="16.1803" gradientUnits="userSpaceOnUse">
<stop stop-color="#FA709A"/>
<stop offset="1" stop-color="#FEE140"/>
</linearGradient>
</defs>
</svg>
